<svg xmlns="http://www.w3.org/2000/svg" height="800" width="1200" viewBox="-10.77 -4.837 93.34 29.022"><g transform="translate(-39.6952 -212.4867)"><rect width="19.3178" height="19.3479" x="39.6953" y="212.4867" ry=".6813" fill="#fff"/><path d="M63.5117 229.0883h.7138v-3.7907h-.7138zm2.1808 0v-3.7908h.6377l1.983 2.6088h.0113v-2.6088h.3042v3.7908h-.3155l-2.3052-3.0242h-.0112v3.0242h-.3043m4.8379 0v-3.5448h-.7547v-.246h2.2225v.246h-.7547v3.5448h-.713m2.6265 0v-3.7908h2.2398v.246h-1.526v1.4625h1.4387v.2454h-1.4387v1.5915h1.5505v.2454H73.157m3.5395 0v-3.7908h1.6378c.69 0 1.0755.5093 1.0755 1.1172 0 .5794-.4206.8308-.9882.9009l1.0061 1.7727h-.7838l-1.0352-1.942h.047c.6317 0 1.0404-.2461 1.0404-.813 0-.4207-.2044-.8486-.9002-.8486h-.3863v3.6036h-.713m3.9766 0v-3.7908h.6377l1.983 2.6088h.012v-2.6088h.3042v3.7908h-.3162l-2.3045-3.0242h-.0119v3.0242h-.3043m5.1832-2.6267l-.5503 1.3924h1.106zm1.79 2.6267h-.731l-.4035-.9889h-1.305l-.3804.989h-.3333l1.5445-3.8961h.0119l1.5967 3.896m1.2059 0v-3.5448h-.7548v-.246H90.32v.246h-.7547v3.5448h-.713m2.7072 0h.7142v-3.7907h-.7142zm3.7842-.1409c.9128 0 1.1172-1.018 1.1172-1.7548 0-.737-.2044-1.7543-1.1172-1.7543-.9121 0-1.1112 1.0174-1.1112 1.7543 0 .7368.199 1.7548 1.1112 1.7548zm0-3.7551c1.1 0 1.8839.883 1.8839 2.0003 0 1.1172-.7839 2.0002-1.8839 2.0002-1.094 0-1.8772-.883-1.8772-2.0002 0-1.1173.7832-2.0003 1.8772-2.0003m3.0473 3.896v-3.7908h.637l1.9837 2.6088h.0112v-2.6088h.305v3.7908h-.3162l-2.3052-3.0242h-.0112v3.0242h-.3043m5.1826-2.6267l-.5497 1.3924h1.1053zm1.7899 2.6267h-.731l-.4034-.9889h-1.3044l-.381.989h-.3327l1.5438-3.8961h.012l1.5967 3.896m.9512 0v-3.7908h.7137v3.4925h1.5207v.2983h-2.2344m-42.8592-5.9624l.0006-8.7387h5.1654v.5662h-3.5203v3.3715h3.3172v.5662h-3.3172v3.6685h3.5738v.5662h-5.2195m8.97-.5662h1.0246c2.63.0007 3.183-1.901 3.183-3.6136 0-2.1987-1.0247-3.992-3.1016-3.992h-1.1053zm-1.645-8.1724h2.8456c3.1558.0007 4.6527 2.239 4.652 4.5317 0 2.792-1.7939 4.207-4.3425 4.207h-3.1558l.0005-8.7387m9.4637 8.74v-8.7373l1.6457-.001-.0006 8.7386h-1.645m4.6419-1.5654c.4585.7283.944 1.1192 1.8072 1.1192.7553 0 1.565-.6065 1.565-1.51 0-2.5355-4.0997-1.3356-4.0997-4.4643 0-1.4023 1.1727-2.5626 2.8045-2.5626 1.0789 0 2.1716.594 2.63 1.565l-.5669.3639c-.3367-.7012-.8632-1.241-1.7932-1.241-.9042 0-1.4294.688-1.4294 1.524 0 2.05 4.099 1.1874 4.099 4.3426 0 1.6054-1.4022 2.6704-2.872 2.6704-1.1866 0-2.1444-.3513-2.751-1.362l.6066-.4452m10.7573 1.2416c2.104 0 2.5763-2.3469 2.5763-4.0462 0-1.6993-.4722-4.0455-2.5757-4.0455-2.104 0-2.5625 2.3462-2.5625 4.0455 0 1.6993.4584 4.0462 2.5619 4.0462zm.0005-8.658c2.5354 0 4.3425 2.0367 4.3425 4.6118-.0006 2.5764-1.8071 4.6124-4.3432 4.6124-2.5221 0-4.3286-2.0366-4.3286-4.6124 0-2.5757 1.8071-4.6117 4.3293-4.6117m6.1272 8.9814l.0005-8.7387h1.4698l4.5713 6.0148h.0271l.0006-6.0148h.7011l-.0005 8.7393h-.7283l-5.3128-6.9725h-.0271v6.9725l-.7018-.0006" fill="#fff"/><path d="M110.468 227.176c.5377 0 .9736-.4359.9736-.973 0-.5378-.4359-.9737-.9736-.9737-.5371 0-.9737.436-.9737.9737 0 .5371.4366.973.9737.973z" fill="none" stroke="#fff" stroke-width=".1072"/><path d="M109.9825 226.7844c.0766-.005.1567-.01.2301-.01.0595 0 .1396.005.2163.01v-.041h-.041c-.076 0-.0952-.0172-.0952-.1058v-.379c.1416 0 .1449.0106.2077.0919l.3327.4339c.0437-.005.09-.01.1356-.01.0476 0 .094.005.1396.01v-.041c-.0675-.005-.1018-.012-.17-.1012l-.2427-.3155a.6365.6365 0 00-.1006-.1019c.2038-.043.3036-.1766.3036-.3367 0-.2659-.2017-.3347-.4253-.3347-.078 0-.1568.01-.2606.01-.0734 0-.1535-.005-.2302-.01v.041h.041c.0761 0 .0952.0165.0952.1058v.9373c0 .0886-.0192.1059-.0952.1059h-.041zm.3102-1.1298c0-.0377.009-.041.0628-.041.3195 0 .3565.1561.3565.3076 0 .1098-.0463.2864-.3393.2864-.0284 0-.0582-.002-.08-.003v-.5496m-70.5975 6.1698h19.318v-19.3373h-19.318z" fill="#fff"/><path d="M39.7071 224.3357l8.0692.6846-5.9161-4.3306 6.7839 2.4745-6.524-8.2617 8.2597 6.4784-2.4825-6.7291 4.1202 5.717-.3664-7.8727 2.5836 7.8966 1.9249-7.9059H39.6952v16.4646h.0073l7.9779-1.7873-7.9732-2.8284" fill="#ffd046"/><path d="M39.6952 228.9613H56.159v-16.4745h2.8542v19.348h-19.318v-2.8735" fill="#006a53"/><path d="M63.5117 229.0883h.7138v-3.7907h-.7138zm2.1808 0v-3.7908h.6377l1.983 2.6088h.0113v-2.6088h.3042v3.7908h-.3155l-2.3052-3.0242h-.0112v3.0242h-.3043m4.8379 0v-3.5448h-.7547v-.246h2.2225v.246h-.7547v3.5448h-.713m2.6265 0v-3.7908h2.2398v.246h-1.526v1.4625h1.4387v.2454h-1.4387v1.5915h1.5505v.2454H73.157m3.5395 0v-3.7908h1.6378c.69 0 1.0755.5093 1.0755 1.1172 0 .5794-.4206.8308-.9882.9009l1.0061 1.7727h-.7838l-1.0352-1.942h.047c.6317 0 1.0404-.2461 1.0404-.813 0-.4207-.2044-.8486-.9002-.8486h-.3863v3.6036h-.713m3.9766 0v-3.7908h.6377l1.983 2.6088h.012v-2.6088h.3042v3.7908h-.3162l-2.3045-3.0242h-.0119v3.0242h-.3043m5.1832-2.6267l-.5503 1.3924h1.106zm1.79 2.6267h-.731l-.4035-.9889h-1.305l-.3804.989h-.3333l1.5445-3.8961h.0119l1.5967 3.896m1.2059 0v-3.5448h-.7548v-.246H90.32v.246h-.7547v3.5448h-.713m2.7072 0h.7142v-3.7907h-.7142zm3.7842-.1409c.9128 0 1.1172-1.018 1.1172-1.7548 0-.737-.2044-1.7543-1.1172-1.7543-.9121 0-1.1112 1.0174-1.1112 1.7543 0 .7368.199 1.7548 1.1112 1.7548zm0-3.7551c1.1 0 1.8839.883 1.8839 2.0003 0 1.1172-.7839 2.0002-1.8839 2.0002-1.094 0-1.8772-.883-1.8772-2.0002 0-1.1173.7832-2.0003 1.8772-2.0003m3.0473 3.896v-3.7908h.637l1.9837 2.6088h.0112v-2.6088h.305v3.7908h-.3162l-2.3052-3.0242h-.0112v3.0242h-.3043m5.1826-2.6267l-.5497 1.3924h1.1053zm1.7899 2.6267h-.731l-.4034-.9889h-1.3044l-.381.989h-.3327l1.5438-3.8961h.012l1.5967 3.896m.9512 0v-3.7908h.7137v3.4925h1.5207v.2983h-2.2344m-42.8592-5.9624l.0006-8.7387h5.1654v.5662h-3.5203v3.3715h3.3172v.5662h-3.3172v3.6685h3.5738v.5662h-5.2195m8.97-.5662h1.0246c2.63.0007 3.183-1.901 3.183-3.6136 0-2.1987-1.0247-3.992-3.1016-3.992h-1.1053zm-1.645-8.1724h2.8456c3.1558.0007 4.6527 2.239 4.652 4.5317 0 2.792-1.7939 4.207-4.3425 4.207h-3.1558l.0005-8.7387m9.4637 8.74v-8.7373l1.6457-.001-.0006 8.7386h-1.645m4.6419-1.5654c.4585.7283.944 1.1192 1.8072 1.1192.7553 0 1.565-.6065 1.565-1.51 0-2.5355-4.0997-1.3356-4.0997-4.4643 0-1.4023 1.1727-2.5626 2.8045-2.5626 1.0789 0 2.1716.594 2.63 1.565l-.5669.3639c-.3367-.7012-.8632-1.241-1.7932-1.241-.9042 0-1.4294.688-1.4294 1.524 0 2.05 4.099 1.1874 4.099 4.3426 0 1.6054-1.4022 2.6704-2.872 2.6704-1.1866 0-2.1444-.3513-2.751-1.362l.6066-.4452m10.7573 1.2416c2.104 0 2.5763-2.3469 2.5763-4.0462 0-1.6993-.4722-4.0455-2.5757-4.0455-2.104 0-2.5625 2.3462-2.5625 4.0455 0 1.6993.4584 4.0462 2.5619 4.0462zm.0005-8.658c2.5354 0 4.3425 2.0367 4.3425 4.6118-.0006 2.5764-1.8071 4.6124-4.3432 4.6124-2.5221 0-4.3286-2.0366-4.3286-4.6124 0-2.5757 1.8071-4.6117 4.3293-4.6117m6.1272 8.9814l.0005-8.7387h1.4698l4.5713 6.0148h.0271l.0006-6.0148h.7011l-.0005 8.7393h-.7283l-5.3128-6.9725h-.0271v6.9725l-.7018-.0006" fill="#808285"/><path d="M110.468 227.176c.5377 0 .9736-.4359.9736-.973 0-.5378-.4359-.9737-.9736-.9737-.5371 0-.9737.436-.9737.9737 0 .5371.4366.973.9737.973z" fill="none" stroke="#808285" stroke-width=".1072"/><path d="M109.9825 226.7844c.0766-.005.1567-.01.2301-.01.0595 0 .1396.005.2163.01v-.041h-.041c-.076 0-.0952-.0172-.0952-.1058v-.379c.1416 0 .1449.0106.2077.0919l.3327.4339c.0437-.005.09-.01.1356-.01.0476 0 .094.005.1396.01v-.041c-.0675-.005-.1018-.012-.17-.1012l-.2427-.3155a.6365.6365 0 00-.1006-.1019c.2038-.043.3036-.1766.3036-.3367 0-.2659-.2017-.3347-.4253-.3347-.078 0-.1568.01-.2606.01-.0734 0-.1535-.005-.2302-.01v.041h.041c.0761 0 .0952.0165.0952.1058v.9373c0 .0886-.0192.1059-.0952.1059h-.041zm.3102-1.1298c0-.0377.009-.041.0628-.041.3195 0 .3565.1561.3565.3076 0 .1098-.0463.2864-.3393.2864-.0284 0-.0582-.002-.08-.003v-.5496" fill="#808285"/></g></svg>